<svg width="88" height="88" viewBox="0 0 88 88" fill="none" xmlns="http://www.w3.org/2000/svg">
<g clip-path="url(#clip0_642_2846)">
<path d="M42.2002 86.0004C32.1938 86.0004 24.8773 85.9962 19.2788 85.2444C13.7376 84.5004 10.1803 83.0572 7.51437 80.3962C4.85194 77.7337 3.40971 74.2 2.66605 68.6725C1.91442 63.0856 1.91016 55.7672 1.91016 45.7104L1.91016 42.1904C1.91016 32.1841 1.91439 24.8675 2.66612 19.269C3.41021 13.7274 4.85356 10.17 7.51492 7.50405C10.1773 4.84197 13.7109 3.39989 19.2381 2.65628C24.8249 1.90465 32.1433 1.90039 42.2002 1.90039L45.7203 1.90039C55.7266 1.90039 63.0431 1.90462 68.6416 2.65635C74.1828 3.40039 77.7401 4.84359 80.406 7.5046C83.0685 10.167 84.5107 13.7007 85.2544 19.2283C86.006 24.8152 86.0103 32.1336 86.0103 42.1904V45.7104C86.0103 55.7167 86.006 63.0332 85.2543 68.6317C84.5102 74.1738 83.0666 77.7313 80.4049 80.3973C77.7428 83.0637 74.21 84.5058 68.6828 85.2482C63.0958 85.9986 55.7777 86.0004 45.7203 86.0004H42.2002Z" stroke="white" stroke-width="4"/>
<path d="M51.2008 16.0998C48.9008 16.0772 46.9008 17.9298 46.9008 20.3498V25.5198L36.1008 22.8298C35.7648 22.746 35.4298 22.7038 35.1008 22.7008C32.8008 22.6782 30.8008 24.5308 30.8008 26.9508V32.1008L20.1008 29.4308C17.4108 28.7608 14.8008 30.7908 14.8008 33.5508V62.2508C14.8008 64.6908 16.4608 66.8108 18.8308 67.4008L35.9308 71.6608C38.6208 72.3308 41.2308 70.3008 41.2308 67.5408V38.8408C41.2308 37.0908 40.3738 35.5108 39.0208 34.5408C38.9992 34.4701 39.0041 34.3918 39.0481 34.3278C39.1231 34.2188 39.2581 34.1668 39.3841 34.2048C41.6341 34.8848 43.7741 37.1848 43.9941 40.0848L44.7361 61.9848C44.7552 62.7188 45.2451 63.3448 45.9361 63.5748L51.9361 65.0648C54.6261 65.7348 57.2361 63.7048 57.2361 60.9448C57.3069 51.4748 57.2865 41.8448 57.2889 32.3448C57.2889 31.0548 56.8529 30.0648 56.3629 29.3448C56.2835 29.2248 56.1999 29.1068 56.1109 28.9928C56.0039 28.8568 55.8869 28.7278 55.7669 28.6018C55.5879 28.4138 55.3969 28.2348 55.1909 28.0748L55.187 28.0709C55.1022 27.9857 55.078 27.8529 55.1479 27.7529C55.2229 27.6439 55.3579 27.5919 55.4839 27.6299C57.7339 28.3099 59.8839 30.6099 60.0939 33.5099L60.8359 55.4099C60.8549 56.1379 61.3399 56.7599 62.0259 56.9799L68.0359 58.4799C70.7259 59.1499 73.3359 57.1199 73.3359 54.3599V25.6599C73.3359 23.2199 71.6759 21.0999 69.3059 20.5099L52.2059 16.2499C51.8699 16.1661 51.5349 16.1239 51.2059 16.1209L51.2008 16.0998Z" fill="white"/>
</g>
<defs>
<clipPath id="clip0_642_2846">
<rect width="88" height="88" fill="white"/>
</clipPath>
</defs>
</svg>
